# xmcd CD database file
#
# Track frame offsets:
#	150
#	21749
#	47691
#	76817
#	111081
#	125410
#	150536
#	164000
#	181752
#
# Disc length: 3001 seconds
#
# Revision: 0
# Processed by: cddbd v1.5.2PL0 Copyright (c) Steve Scherf et al.
# Submitted via: CDex 1.95
#
DISCID=6d0bb709
DTITLE=Albert King, B.B.King and Bobby Blue Bland - Memphis Blues Festival 1975
DYEAR=1975
DGENRE=Blues
TTITLE0=Why You So Mean To Me
TTITLE1=Laundromat Blues
TTITLE2=I'll Play The Blues For You
TTITLE3=You Don't Love Me
TTITLE4=In The Beginning
TTITLE5=I'll Take Care Of You
TTITLE6=Your Friends
TTITLE7=You Wouldn't Treat A Dog
TTITLE8=The Feeling Is Gone - Stormy Monday
EXTD=YEAR: 1975
EXTT0=
EXTT1=
EXTT2=
EXTT3=
EXTT4=
EXTT5=
EXTT6=
EXTT7=
EXTT8=
PLAYORDER=
